<svg preserveAspectRatio="none" overflow="visible" style="display: block;" width="19.9554" height="11" viewBox="0 0 19.9554 11" fill="none" xmlns="http://www.w3.org/2000/svg">
<g id="Container">
<path id="Symbol" d="M10 2C10.2917 2 10.5312 1.90625 10.7188 1.71875V1.71875C10.9062 1.53125 11 1.29167 11 1C11 0.708333 10.9062 0.46875 10.7188 0.28125C10.5312 0.09375 10.2917 0 10 0H6C5.70833 0 5.46875 0.09375 5.28125 0.28125C5.09375 0.46875 5 0.708333 5 1C5 1.29167 5.09375 1.53125 5.28125 1.71875C5.46875 1.90625 5.70833 2 6 2H7V3H4.5H3H1.5C1.08333 3.02083 0.729167 3.16667 0.4375 3.4375C0.166667 3.72917 0.0208333 4.08333 0 4.5V6.53125C0.0208333 7.15625 0.322917 7.61458 0.90625 7.90625L3 8.84375V9.5C3.02083 9.91667 3.16667 10.2708 3.4375 10.5625C3.72917 10.8333 4.08333 10.9792 4.5 11H12.5938C13.1979 11 13.6979 10.7708 14.0938 10.3125L19.8125 3.875C19.9792 3.625 20 3.38542 19.875 3.15625C19.7292 2.92708 19.5104 2.83333 19.2188 2.875L14 4L12.4375 3.21875C12.1458 3.07292 11.8438 3 11.5312 3H9V2H10V2V2M3 4.5V7.1875L1.5 6.53125V4.5H3V4.5V4.5" fill="#0052CC"/>
</g>
</svg>
